<svg xmlns="http://www.w3.org/2000/svg" width="1200" height="700" viewBox="0 0 1200 700">
  <rect width="1200" height="700" fill="#f8f9fa"/>
  <text x="40" y="55" fill="#212529" font-size="30" font-family="Arial">Carga manual de CSV clínico</text>
  <rect x="40" y="95" width="760" height="70" rx="10" fill="white" stroke="#ced4da"/>
  <text x="70" y="140" fill="#495057" font-size="18" font-family="Arial">archivo_clinico.csv</text>
  <rect x="840" y="95" width="260" height="70" rx="10" fill="#6c757d"/>
  <text x="895" y="140" fill="white" font-size="18" font-family="Arial">Subir CSV y procesar ETL</text>
  <rect x="40" y="210" width="1060" height="330" rx="10" fill="white" stroke="#dee2e6"/>
  <text x="70" y="255" fill="#212529" font-size="22" font-family="Arial">Histórico de Ejecuciones ETL</text>
  <text x="70" y="310" fill="#495057" font-size="16" font-family="Arial">Fecha</text>
  <text x="260" y="310" fill="#495057" font-size="16" font-family="Arial">Procesados</text>
  <text x="430" y="310" fill="#495057" font-size="16" font-family="Arial">Tiempo (s)</text>
  <text x="600" y="310" fill="#495057" font-size="16" font-family="Arial">Estado</text>
  <text x="760" y="310" fill="#495057" font-size="16" font-family="Arial">Detalles</text>
  <line x1="70" y1="340" x2="1050" y2="340" stroke="#dee2e6"/>
  <text x="70" y="375" fill="#212529" font-size="16" font-family="Arial">2026-06-11 21:30</text>
  <text x="260" y="375" fill="#212529" font-size="16" font-family="Arial">1800</text>
  <text x="430" y="375" fill="#212529" font-size="16" font-family="Arial">12.45</text>
  <text x="600" y="375" fill="#198754" font-size="16" font-family="Arial">Exitoso</text>
  <text x="760" y="375" fill="#495057" font-size="16" font-family="Arial">ETL completado exitosamente</text>
  <text x="70" y="430" fill="#212529" font-size="16" font-family="Arial">2026-06-11 21:35</text>
  <text x="260" y="430" fill="#212529" font-size="16" font-family="Arial">998</text>
  <text x="430" y="430" fill="#212529" font-size="16" font-family="Arial">8.12</text>
  <text x="600" y="430" fill="#dc3545" font-size="16" font-family="Arial">Fallido</text>
  <text x="760" y="430" fill="#495057" font-size="16" font-family="Arial">Columnas faltantes</text>
</svg>
