<svg xmlns="http://www.w3.org/2000/svg" width="1200" height="700" viewBox="0 0 1200 700">
  <rect width="1200" height="700" fill="#f8f9fa"/>
  <text x="40" y="55" fill="#212529" font-size="30" font-family="Arial">Predicción de Riesgo (ML)</text>
  <rect x="40" y="95" width="520" height="460" rx="10" fill="white" stroke="#dee2e6"/>
  <text x="70" y="140" fill="#212529" font-size="20" font-family="Arial">Datos clínicos del paciente</text>
  <rect x="70" y="170" width="210" height="40" rx="6" fill="#e9ecef"/>
  <rect x="310" y="170" width="210" height="40" rx="6" fill="#e9ecef"/>
  <rect x="70" y="230" width="210" height="40" rx="6" fill="#e9ecef"/>
  <rect x="310" y="230" width="210" height="40" rx="6" fill="#e9ecef"/>
  <rect x="70" y="290" width="210" height="40" rx="6" fill="#e9ecef"/>
  <rect x="310" y="290" width="210" height="40" rx="6" fill="#e9ecef"/>
  <rect x="70" y="350" width="210" height="40" rx="6" fill="#e9ecef"/>
  <rect x="310" y="350" width="210" height="40" rx="6" fill="#e9ecef"/>
  <rect x="70" y="430" width="410" height="50" rx="8" fill="#198754"/>
  <text x="205" y="463" fill="white" font-size="18" font-family="Arial">Predecir Riesgo</text>
  <rect x="620" y="95" width="460" height="220" rx="10" fill="#e8f5e9" stroke="#198754"/>
  <text x="655" y="145" fill="#198754" font-size="24" font-family="Arial">Resultado: Alto</text>
  <text x="655" y="190" fill="#212529" font-size="16" font-family="Arial">Bajo: 8%</text>
  <text x="655" y="220" fill="#212529" font-size="16" font-family="Arial">Medio: 22%</text>
  <text x="655" y="250" fill="#212529" font-size="16" font-family="Arial">Alto: 57%</text>
  <text x="655" y="280" fill="#212529" font-size="16" font-family="Arial">Crítico: 13%</text>
</svg>
